HIERARCHY
ROOT Hips
{
 OFFSET 0.000000 0.000000 0.000000
 CHANNELS 6 Xposition Yposition Zposition Yrotation Xrotation Zrotation
 JOINT Chest
 {
  OFFSET 0.000000 9.585900 0.002600
  CHANNELS 3 Yrotation Xrotation Zrotation
  JOINT Chest2
  {
   OFFSET 0.000000 9.601200 -0.005300
   CHANNELS 3 Yrotation Xrotation Zrotation
   JOINT Chest3
   {
    OFFSET 0.000000 9.561800 0.000000
    CHANNELS 3 Yrotation Xrotation Zrotation
    JOINT Chest4
    {
     OFFSET 0.000000 9.552100 0.000000
     CHANNELS 3 Yrotation Xrotation Zrotation
     JOINT Neck
     {
      OFFSET 0.000000 14.453000 0.000000
      CHANNELS 3 Yrotation Xrotation Zrotation
      JOINT Head
      {
       OFFSET 0.000000 8.936500 -0.011300
       CHANNELS 3 Yrotation Xrotation Zrotation
       End Site
       {
        OFFSET 0.000000 17.073600 -0.006000
       }
      }
     }
     JOINT RightCollar
     {
      OFFSET -2.921100 9.558500 0.000000
      CHANNELS 3 Yrotation Xrotation Zrotation
      JOINT RightShoulder
      {
       OFFSET -13.519700 0.000000 0.000000
       CHANNELS 3 Yrotation Xrotation Zrotation
       JOINT RightElbow
       {
        OFFSET 0.000000 -29.696600 0.000000
        CHANNELS 3 Yrotation Xrotation Zrotation
        JOINT RightWrist
        {
         OFFSET 0.000000 -24.004700 0.000000
         CHANNELS 3 Yrotation Xrotation Zrotation
         End Site
         {
          OFFSET 0.000000 -17.728500 0.000000
         }
        }
       }
      }
     }
     JOINT LeftCollar
     {
      OFFSET 2.921100 9.558500 0.000000
      CHANNELS 3 Yrotation Xrotation Zrotation
      JOINT LeftShoulder
      {
       OFFSET 13.519700 0.000000 0.000000
       CHANNELS 3 Yrotation Xrotation Zrotation
       JOINT LeftElbow
       {
        OFFSET 0.000000 -29.696600 0.000000
        CHANNELS 3 Yrotation Xrotation Zrotation
        JOINT LeftWrist
        {
         OFFSET 0.000000 -24.004700 0.000000
         CHANNELS 3 Yrotation Xrotation Zrotation
         End Site
         {
          OFFSET 0.000000 -17.728500 0.000000
         }
        }
       }
      }
     }
    }
   }
  }
 }
 JOINT RightHip
 {
  OFFSET -7.771700 -0.012900 -0.001300
  CHANNELS 3 Yrotation Xrotation Zrotation
  JOINT RightKnee
  {
   OFFSET 0.000000 -40.869800 0.001200
   CHANNELS 3 Yrotation Xrotation Zrotation
   JOINT RightAnkle
   {
    OFFSET 0.000000 -39.717900 0.002100
    CHANNELS 3 Yrotation Xrotation Zrotation
    JOINT RightToe
    {
     OFFSET 0.000000 -4.965400 11.033500
     CHANNELS 3 Yrotation Xrotation Zrotation
     End Site
     {
      OFFSET 0.000000 -1.423100 5.872300
     }
    }
   }
  }
 }
 JOINT LeftHip
 {
  OFFSET 7.771700 -0.012900 -0.001300
  CHANNELS 3 Yrotation Xrotation Zrotation
  JOINT LeftKnee
  {
   OFFSET 0.000000 -40.869800 0.001200
   CHANNELS 3 Yrotation Xrotation Zrotation
   JOINT LeftAnkle
   {
    OFFSET 0.000000 -39.717900 0.002100
    CHANNELS 3 Yrotation Xrotation Zrotation
    JOINT LeftToe
    {
     OFFSET 0.000000 -4.965400 11.033500
     CHANNELS 3 Yrotation Xrotation Zrotation
     End Site
     {
      OFFSET 0.000000 -1.423100 5.872300
     }
    }
   }
  }
 }
}
MOTION
Frames: 6
Frame Time: 0.008333
-106.063450 49.350765 21.810451 176.885405 -30.705688 -4.160665 0.213199 19.162878 1.998843 -0.001862 2.290713 0.173044 0.060026 3.784360 0.244520 0.181720 16.652725 1.284445 3.748349 18.071268 -1.666168 7.434502 -2.040693 -4.283388 -2.587396 -2.232516 -3.657959 4.631340 -7.789527 -10.799696 -38.718763 -49.496888 89.105933 3.753219 3.409604 -10.669694 1.188865 -2.579097 2.586801 -6.680410 -2.574224 14.041411 71.319527 -65.984497 -110.058664 2.499452 9.762706 3.920086 -7.052838 -53.144195 -6.682016 -142.108387 81.341596 -128.982580 -30.157487 -3.556071 -4.056134 -0.279641 -13.135672 0.571786 -12.513005 -55.937303 19.564888 -74.118492 65.090030 -79.570660 30.569108 6.594764 16.795533 0.339659 -0.534768 0.146632
-106.064948 49.349545 21.809848 176.871146 -30.707143 -4.138724 0.173321 19.154003 1.997190 0.005267 2.294420 0.168287 0.049582 3.786248 0.249327 0.169878 16.657045 1.290622 3.756683 18.062927 -1.635790 7.440520 -2.057869 -4.230900 -2.591643 -2.211604 -3.669586 4.626607 -7.815767 -10.801333 -38.723603 -49.487353 89.116749 3.756581 3.388449 -10.642032 1.188114 -2.586750 2.580223 -6.696517 -2.607148 14.057824 71.341631 -65.997108 -110.079687 2.546065 9.768404 3.955010 -7.015584 -53.160103 -6.720687 -142.228498 81.339877 -129.100402 -30.159634 -3.546935 -4.061846 -0.272853 -13.144098 0.572572 -12.479062 -55.935502 19.556962 -74.108200 65.073269 -79.568937 30.569046 6.587156 16.802020 0.336522 -0.527097 0.147845
-106.064402 49.349264 21.808425 176.860419 -30.718233 -4.121298 0.151719 19.157763 1.997365 0.003174 2.295473 0.169662 0.033645 3.787363 0.253967 0.166919 16.660434 1.295526 3.762803 18.058709 -1.605891 7.442346 -2.067544 -4.178288 -2.599284 -2.192396 -3.681177 4.623616 -7.846047 -10.801540 -38.725223 -49.468798 89.121345 3.751179 3.353048 -10.611284 1.182370 -2.592239 2.576819 -6.713063 -2.639852 14.069527 71.336046 -65.972533 -110.046683 2.544031 9.782181 3.962027 -6.985227 -53.160260 -6.754647 -142.339777 81.338547 -129.208520 -30.152835 -3.550810 -4.074122 -0.278000 -13.143598 0.581680 -12.449655 -55.923608 19.552198 -74.094049 65.069387 -79.565791 30.563210 6.580466 16.809731 0.335061 -0.521479 0.148951
-106.061955 49.349973 21.806385 176.851229 -30.737436 -4.107058 0.138043 19.170698 2.002582 0.001433 2.296402 0.170798 0.025350 3.788274 0.255998 0.160437 16.663560 1.301514 3.766527 18.057877 -1.576029 7.439504 -2.071154 -4.124726 -2.633275 -2.176647 -3.653172 4.653025 -7.877869 -10.839549 -38.727522 -49.442975 89.124643 3.768945 3.368199 -10.590898 1.174219 -2.598427 2.575740 -6.729591 -2.670183 14.077108 71.357824 -66.004981 -110.070659 2.501048 9.815146 3.979697 -6.959058 -53.148448 -6.781255 -142.363815 81.329260 -129.229574 -30.144153 -3.556993 -4.086227 -0.281017 -13.141227 0.592401 -12.421674 -55.903044 19.543771 -74.090507 65.066072 -79.568981 30.565799 6.567040 16.814144 0.339667 -0.510493 0.146590
-106.060800 49.351253 21.804237 176.856330 -30.758838 -4.084024 0.118089 19.189900 1.983652 -0.004722 2.296320 0.182444 0.015405 3.785785 0.258998 0.156318 16.670120 1.305422 3.769229 18.059186 -1.547415 7.435094 -2.070677 -4.072965 -2.630973 -2.177944 -3.663275 4.650429 -7.893291 -10.844962 -38.745235 -49.416642 89.137922 3.756663 3.349837 -10.560915 1.166291 -2.607186 2.573960 -6.743721 -2.696695 14.080021 71.374364 -66.035292 -110.081039 2.503380 9.827431 4.011204 -6.923835 -53.137226 -6.835649 -142.337051 81.306451 -129.201613 -30.142506 -3.552784 -4.072798 -0.268589 -13.151249 0.581707 -12.378910 -55.879181 19.507854 -74.046819 65.065874 -79.537665 30.572149 6.571002 16.823869 0.318481 -0.514962 0.151577
-106.059036 49.353012 21.802899 176.875564 -30.778267 -4.064378 0.087113 19.208849 1.961117 -0.009522 2.297227 0.193800 0.011399 3.786134 0.260954 0.146849 16.671979 1.310107 3.772002 18.062721 -1.520678 7.431365 -2.065886 -4.024587 -2.623653 -2.182178 -3.674907 4.654511 -7.895451 -10.860727 -38.789054 -49.397386 89.172359 3.745582 3.344738 -10.540753 1.160651 -2.617025 2.569206 -6.754406 -2.717913 14.079669 71.379248 -66.047379 -110.066510 2.504587 9.828916 4.029867 -6.902283 -53.129638 -6.900183 -142.401250 81.271654 -129.265040 -30.102445 -3.559880 -4.043036 -0.287652 -13.162620 0.557594 -12.341479 -55.853590 19.466843 -74.004412 65.051826 -79.501065 30.565786 6.567032 16.826746 0.316398 -0.503799 0.155251
